<?xml version="1.0" encoding="utf-8" ?>
<svg baseProfile="full" height="100%" version="1.1" viewBox="-400,-400,800,800" width="100%" xmlns="http://www.w3.org/2000/svg" xmlns:ev="http://www.w3.org/2001/xml-events" xmlns:xlink="http://www.w3.org/1999/xlink"><defs><g id="side-0"><rect fill="rgb(255,255,255)" height="25" stroke="black" stroke-width="2" width="50" x="-50" y="25" /><text dominant-baseline="central" font-size="1em" text-anchor="end" x="-55" y="37.5">TPCI</text><text dominant-baseline="central" font-size="1em" text-anchor="end" x="-5" y="37.5">1</text><rect fill="rgb(255,255,255)" height="25" stroke="black" stroke-width="2" width="50" x="-50" y="60" /><text dominant-baseline="central" font-size="1em" text-anchor="end" x="-55" y="72.5">TPQI</text><text dominant-baseline="central" font-size="1em" text-anchor="end" x="-5" y="72.5">2</text><rect fill="rgb(255,255,255)" height="25" stroke="black" stroke-width="2" width="50" x="-50" y="95" /><text dominant-baseline="central" font-size="1em" text-anchor="end" x="-55" y="107.5">TII</text><text dominant-baseline="central" font-size="1em" text-anchor="end" x="-5" y="107.5">3</text><rect fill="rgb(255,255,255)" height="25" stroke="black" stroke-width="2" width="50" x="-50" y="130" /><text dominant-baseline="central" font-size="1em" text-anchor="end" x="-55" y="142.5">TIO</text><text dominant-baseline="central" font-size="1em" text-anchor="end" x="-5" y="142.5">4</text><rect fill="rgb(255,255,255)" height="25" stroke="black" stroke-width="2" width="50" x="-50" y="165" /><text dominant-baseline="central" font-size="1em" text-anchor="end" x="-55" y="177.5">PCLKI</text><text dominant-baseline="central" font-size="1em" text-anchor="end" x="-5" y="177.5">5</text><rect fill="rgb(255,255,255)" height="25" stroke="black" stroke-width="2" width="50" x="-50" y="200" /><text dominant-baseline="central" font-size="1em" text-anchor="end" x="-55" y="212.5">PSI</text><text dominant-baseline="central" font-size="1em" text-anchor="end" x="-5" y="212.5">6</text><rect fill="rgb(255,255,255)" height="25" stroke="black" stroke-width="2" width="50" x="-50" y="235" /><text dominant-baseline="central" font-size="1em" text-anchor="end" x="-55" y="247.5">TESTI</text><text dominant-baseline="central" font-size="1em" text-anchor="end" x="-5" y="247.5">7</text><rect fill="rgb(255,255,255)" height="25" stroke="black" stroke-width="2" width="50" x="-50" y="270" /><text dominant-baseline="central" font-size="1em" text-anchor="end" x="-55" y="282.5">SI</text><text dominant-baseline="central" font-size="1em" text-anchor="end" x="-5" y="282.5">8</text><rect fill="rgb(255,255,255)" height="25" stroke="black" stroke-width="2" width="50" x="-50" y="305" /><text dominant-baseline="central" font-size="1em" text-anchor="end" x="-55" y="317.5">LDI</text><text dominant-baseline="central" font-size="1em" text-anchor="end" x="-5" y="317.5">9</text><rect fill="rgb(255,255,255)" height="25" stroke="black" stroke-width="2" width="50" x="-50" y="340" /><text dominant-baseline="central" font-size="1em" text-anchor="end" x="-55" y="352.5">SCLKI</text><text dominant-baseline="central" font-size="1em" text-anchor="end" x="-5" y="352.5">10</text></g><g id="side-1"><rect fill="rgb(255,255,255)" height="25" stroke="black" stroke-width="2" width="50" x="-50" y="25" /><text dominant-baseline="central" font-size="1em" text-anchor="end" x="-55" y="37.5">W0</text><text dominant-baseline="central" font-size="1em" text-anchor="end" x="-5" y="37.5">11</text><rect fill="rgb(255,255,255)" height="25" stroke="black" stroke-width="2" width="50" x="-50" y="60" /><text dominant-baseline="central" font-size="1em" text-anchor="end" x="-55" y="72.5">W1</text><text dominant-baseline="central" font-size="1em" text-anchor="end" x="-5" y="72.5">12</text><rect fill="rgb(255,255,255)" height="25" stroke="black" stroke-width="2" width="50" x="-50" y="95" /><text dominant-baseline="central" font-size="1em" text-anchor="end" x="-55" y="107.5">W2</text><text dominant-baseline="central" font-size="1em" text-anchor="end" x="-5" y="107.5">13</text><rect fill="rgb(255,255,255)" height="25" stroke="black" stroke-width="2" width="50" x="-50" y="130" /><text dominant-baseline="central" font-size="1em" text-anchor="end" x="-55" y="142.5">W3</text><text dominant-baseline="central" font-size="1em" text-anchor="end" x="-5" y="142.5">14</text><rect fill="rgb(255,255,255)" height="25" stroke="black" stroke-width="2" width="50" x="-50" y="165" /><text dominant-baseline="central" font-size="1em" text-anchor="end" x="-55" y="177.5">W4</text><text dominant-baseline="central" font-size="1em" text-anchor="end" x="-5" y="177.5">15</text><rect fill="rgb(255,255,255)" height="25" stroke="black" stroke-width="2" width="50" x="-50" y="200" /><text dominant-baseline="central" font-size="1em" text-anchor="end" x="-55" y="212.5">GND</text><text dominant-baseline="central" font-size="1em" text-anchor="end" x="-5" y="212.5">16</text><rect fill="rgb(255,255,255)" height="25" stroke="black" stroke-width="2" width="50" x="-50" y="235" /><text dominant-baseline="central" font-size="1em" text-anchor="end" x="-55" y="247.5">W12</text><text dominant-baseline="central" font-size="1em" text-anchor="end" x="-5" y="247.5">17</text><rect fill="rgb(255,255,255)" height="25" stroke="black" stroke-width="2" width="50" x="-50" y="270" /><text dominant-baseline="central" font-size="1em" text-anchor="end" x="-55" y="282.5">W13</text><text dominant-baseline="central" font-size="1em" text-anchor="end" x="-5" y="282.5">18</text><rect fill="rgb(255,255,255)" height="25" stroke="black" stroke-width="2" width="50" x="-50" y="305" /><text dominant-baseline="central" font-size="1em" text-anchor="end" x="-55" y="317.5">W14</text><text dominant-baseline="central" font-size="1em" text-anchor="end" x="-5" y="317.5">19</text><rect fill="rgb(255,255,255)" height="25" stroke="black" stroke-width="2" width="50" x="-50" y="340" /><text dominant-baseline="central" font-size="1em" text-anchor="end" x="-55" y="352.5">W15</text><text dominant-baseline="central" font-size="1em" text-anchor="end" x="-5" y="352.5">20</text></g><g id="side-2"><rect fill="rgb(255,255,255)" height="25" stroke="black" stroke-width="2" width="50" x="0" y="-50" /><text dominant-baseline="central" font-size="1em" text-anchor="start" x="55" y="-37.5">SCLKO</text><text dominant-baseline="central" font-size="1em" text-anchor="start" x="5" y="-37.5">21</text><rect fill="rgb(255,255,255)" height="25" stroke="black" stroke-width="2" width="50" x="0" y="-85" /><text dominant-baseline="central" font-size="1em" text-anchor="start" x="55" y="-72.5">LDO</text><text dominant-baseline="central" font-size="1em" text-anchor="start" x="5" y="-72.5">22</text><rect fill="rgb(255,255,255)" height="25" stroke="black" stroke-width="2" width="50" x="0" y="-120" /><text dominant-baseline="central" font-size="1em" text-anchor="start" x="55" y="-107.5">SO</text><text dominant-baseline="central" font-size="1em" text-anchor="start" x="5" y="-107.5">23</text><rect fill="rgb(255,255,255)" height="25" stroke="black" stroke-width="2" width="50" x="0" y="-155" /><text dominant-baseline="central" font-size="1em" text-anchor="start" x="55" y="-142.5">TESTO</text><text dominant-baseline="central" font-size="1em" text-anchor="start" x="5" y="-142.5">24</text><rect fill="rgb(255,255,255)" height="25" stroke="black" stroke-width="2" width="50" x="0" y="-190" /><text dominant-baseline="central" font-size="1em" text-anchor="start" x="55" y="-177.5">PSO</text><text dominant-baseline="central" font-size="1em" text-anchor="start" x="5" y="-177.5">25</text><rect fill="rgb(255,255,255)" height="25" stroke="black" stroke-width="2" width="50" x="0" y="-225" /><text dominant-baseline="central" font-size="1em" text-anchor="start" x="55" y="-212.5">PCLKO</text><text dominant-baseline="central" font-size="1em" text-anchor="start" x="5" y="-212.5">26</text><rect fill="rgb(255,255,255)" height="25" stroke="black" stroke-width="2" width="50" x="0" y="-260" /><text dominant-baseline="central" font-size="1em" text-anchor="start" x="55" y="-247.5">--</text><text dominant-baseline="central" font-size="1em" text-anchor="start" x="5" y="-247.5">27</text><rect fill="rgb(255,255,255)" height="25" stroke="black" stroke-width="2" width="50" x="0" y="-295" /><text dominant-baseline="central" font-size="1em" text-anchor="start" x="55" y="-282.5">TFC</text><text dominant-baseline="central" font-size="1em" text-anchor="start" x="5" y="-282.5">28</text><rect fill="rgb(255,255,255)" height="25" stroke="black" stroke-width="2" width="50" x="0" y="-330" /><text dominant-baseline="central" font-size="1em" text-anchor="start" x="55" y="-317.5">TFD</text><text dominant-baseline="central" font-size="1em" text-anchor="start" x="5" y="-317.5">29</text><rect fill="rgb(255,255,255)" height="25" stroke="black" stroke-width="2" width="50" x="0" y="-365" /><text dominant-baseline="central" font-size="1em" text-anchor="start" x="55" y="-352.5">TFQ</text><text dominant-baseline="central" font-size="1em" text-anchor="start" x="5" y="-352.5">30</text></g><g id="side-3"><rect fill="rgb(255,255,255)" height="25" stroke="black" stroke-width="2" width="50" x="0" y="-50" /><text dominant-baseline="central" font-size="1em" text-anchor="start" x="55" y="-37.5">TSSO</text><text dominant-baseline="central" font-size="1em" text-anchor="start" x="5" y="-37.5">31</text><rect fill="rgb(255,255,255)" height="25" stroke="black" stroke-width="2" width="50" x="0" y="-85" /><text dominant-baseline="central" font-size="1em" text-anchor="start" x="55" y="-72.5">TSZ</text><text dominant-baseline="central" font-size="1em" text-anchor="start" x="5" y="-72.5">32</text><rect fill="rgb(255,255,255)" height="25" stroke="black" stroke-width="2" width="50" x="0" y="-120" /><text dominant-baseline="central" font-size="1em" text-anchor="start" x="55" y="-107.5">TSCI</text><text dominant-baseline="central" font-size="1em" text-anchor="start" x="5" y="-107.5">33</text><rect fill="rgb(255,255,255)" height="25" stroke="black" stroke-width="2" width="50" x="0" y="-155" /><text dominant-baseline="central" font-size="1em" text-anchor="start" x="55" y="-142.5">TSLDI</text><text dominant-baseline="central" font-size="1em" text-anchor="start" x="5" y="-142.5">34</text><rect fill="rgb(255,255,255)" height="25" stroke="black" stroke-width="2" width="50" x="0" y="-190" /><text dominant-baseline="central" font-size="1em" text-anchor="start" x="55" y="-177.5">TSSI</text><text dominant-baseline="central" font-size="1em" text-anchor="start" x="5" y="-177.5">35</text><rect fill="rgb(255,255,255)" height="25" stroke="black" stroke-width="2" width="50" x="0" y="-225" /><text dominant-baseline="central" font-size="1em" text-anchor="start" x="55" y="-212.5">VDD</text><text dominant-baseline="central" font-size="1em" text-anchor="start" x="5" y="-212.5">36</text><rect fill="rgb(255,255,255)" height="25" stroke="black" stroke-width="2" width="50" x="0" y="-260" /><text dominant-baseline="central" font-size="1em" text-anchor="start" x="55" y="-247.5">TPQO</text><text dominant-baseline="central" font-size="1em" text-anchor="start" x="5" y="-247.5">37</text><rect fill="rgb(255,255,255)" height="25" stroke="black" stroke-width="2" width="50" x="0" y="-295" /><text dominant-baseline="central" font-size="1em" text-anchor="start" x="55" y="-282.5">TPZO</text><text dominant-baseline="central" font-size="1em" text-anchor="start" x="5" y="-282.5">38</text><rect fill="rgb(255,255,255)" height="25" stroke="black" stroke-width="2" width="50" x="0" y="-330" /><text dominant-baseline="central" font-size="1em" text-anchor="start" x="55" y="-317.5">TPWI</text><text dominant-baseline="central" font-size="1em" text-anchor="start" x="5" y="-317.5">39</text><rect fill="rgb(255,255,255)" height="25" stroke="black" stroke-width="2" width="50" x="0" y="-365" /><text dominant-baseline="central" font-size="1em" text-anchor="start" x="55" y="-352.5">TPZI</text><text dominant-baseline="central" font-size="1em" text-anchor="start" x="5" y="-352.5">40</text></g></defs><rect fill="rgb(255,255,255)" height="390" stroke="black" stroke-width="2" width="390" x="-195" y="-195" /><text dominant-baseline="central" font-size="2em" text-anchor="middle" x="0" y="0">INTRANEX</text><use transform="translate(-195,-195)" xlink:href="#side-0" /><use transform="rotate(270) translate(-195,-195)" xlink:href="#side-1" /><use transform="translate(195,195)" xlink:href="#side-2" /><use transform="rotate(270) translate(195,195)" xlink:href="#side-3" /><circle cx="-157.5" cy="-157.5" fill="rgb(255,255,255)" r="25" stroke="black" stroke-width="2" /></svg>